# xmcd
#
# Track frame offsets: 
#        150
#        21285
#        46642
#        67334
#        85619
#        99543
#        122520
#        139655
#        157952
#        178326
#        197229
#        213842
#        232096
#
# Disc length: 3221 seconds
#
# Revision: 0
# Processed by: cddbd v1.5.2PL0 Copyright (c) Steve Scherf et al.
# Submitted via: ExactAudioCopy v1.0b4
#
DISCID=b10c930d
DTITLE=Big Dave McLean - Better The Devil You Know
DYEAR=2016
DGENRE=Blues
TTITLE0=Life On The Road
TTITLE1=You Can't Lose What You Never Had
TTITLE2=You'll Need Someone On Your Bond
TTITLE3=Angeline
TTITLE4=I Need You
TTITLE5=Where The Music Comes From
TTITLE6=Old Time Religion
TTITLE7=Swingin' On Heaven's Gate
TTITLE8=Believe Me
TTITLE9=Deep Down In Florida
TTITLE10=The Side Of The Road
TTITLE11=Talk About A Revelation
TTITLE12=Pet Rabbit
EXTD=
EXTT0=
EXTT1=
EXTT2=
EXTT3=
EXTT4=
EXTT5=
EXTT6=
EXTT7=
EXTT8=
EXTT9=
EXTT10=
EXTT11=
EXTT12=
PLAYORDER=
